<svg width="718" height="92" viewBox="0 0 718 92" fill="none" xmlns="http://www.w3.org/2000/svg">
<path d="M718 91.0947L688.083 86.54C658.167 81.9852 598.333 72.8758 538.5 69.8298C478.667 66.8977 418.833 69.7444 359 72.8758C299.167 76.0071 239.333 78.8539 179.5 77.4305C119.667 76.0071 59.8333 69.7444 29.9166 66.8123L0 63.7663V3.54913e-05H29.9166C59.8333 3.54913e-05 119.667 3.54913e-05 179.5 3.54913e-05C239.333 3.54913e-05 299.167 3.54913e-05 359 3.54913e-05C418.833 3.54913e-05 478.667 3.54913e-05 538.5 3.54913e-05C598.333 3.54913e-05 658.167 3.54913e-05 688.083 3.54913e-05H718L718 91.0947Z" fill="#0D1462"/>
</svg>
